<?xml version="1.0" encoding="UTF-8"?>
<svg height="600" width="800" xmlns="http://www.w3.org/2000/svg" xmlns:xlink="http://www.w3.org/1999/xlink">
    <g id="Notes" font-family="'LucidaGrande', 'Lucida Grande', sans-serif" font-size="13">
        <rect fill="white" height="600.0" width="800.0" x="0.0" y="0.0" />
        <g font-size="13">
            <text x="18.0" y="176.0">Small</text>
            <text x="18.0" y="376.0">Medium</text>
            <text x="18.0" y="576.0">Large</text>
        </g>
        <g font-size="9">
            <text x="250.0" y="30.0">Ultralight</text>
            <text x="450.0" y="30.0">Regular</text>
            <text x="650.0" y="30.0">Black</text>
            <text id="template-version" fill="#505050" text-anchor="end" x="785.0" y="575.0">Template v.3.0</text>
            <a href="https://wangchujiang.com/#/app">
                <text fill="#505050" text-anchor="end" x="785.0" y="590.0">https://wangchujiang.com/#/app</text>
            </a>
        </g>
    </g>
    <g id="Guides" stroke="rgb(39, 170, 225)" stroke-width="0.5">
        <path id="Capline-S" d="M18,76 l800,0" />
        <path id="H-reference" d="M85,145.755 L87.685,145.755 L113.369,79.287 L114.052,79.287 L114.052,76 L112.148,76 L85,145.755 Z M95.693,121.536 L130.996,121.536 L130.263,119.313 L96.474,119.313 L95.693,121.536 Z M139.15,145.755 L141.787,145.755 L114.638,76 L113.466,76 L113.466,79.287 L139.15,145.755 Z" stroke="none" />
        <path id="Baseline-S" d="M18,146 l800,0" />
        <path id="left-margin-Ultralight-S" d="M215.625,56 l0,110" />
        <path id="right-margin-Ultralight-S" d="M314.375,56 l0,110" />
        <path id="left-margin-Regular-S" d="M415.625,56 l0,110" />
        <path id="right-margin-Regular-S" d="M514.375,56 l0,110" />
        <path id="left-margin-Black-S" d="M615.625,56 l0,110" />
        <path id="right-margin-Black-S" d="M714.375,56 l0,110" />
        <path id="Capline-M" d="M18,276 l800,0" />
        <path id="Baseline-M" d="M18,346 l800,0" />
        <path id="Capline-L" d="M18,476 l800,0" />
        <path id="Baseline-L" d="M18,546 l800,0" />
    </g>
    <g id="Symbols">
        <g id="Ultralight-S">
            <path d="M269.375,82.562 C269.375,81.359 270.359,80.375 271.562,80.375 L278.33,80.375 C278.768,80.375 279.178,80.498 279.547,80.744 L283.908,83.656 C284.988,84.381 286.26,84.764 287.545,84.764 L297.812,84.75 C299.016,84.75 300,85.734 300,86.938 L300,100.062 C300,101.266 299.016,102.25 297.812,102.25 L271.562,102.25 C270.359,102.25 269.375,101.266 269.375,100.062 L269.375,82.562 Z M269.375,121.938 C269.375,120.734 270.359,119.75 271.562,119.75 L278.33,119.75 C278.768,119.75 279.178,119.873 279.547,120.119 L284.182,123.209 C285.084,123.811 286.137,124.125 287.217,124.125 L297.826,124.125 C299.029,124.125 300.014,125.109 300.014,126.312 L300.014,139.438 C300.014,140.641 299.029,141.625 297.826,141.625 L271.576,141.625 C270.373,141.625 269.389,140.641 269.389,139.438 L269.389,121.938 Z" />
            <path d="M269.375,82.562 C269.375,81.359 270.359,80.375 271.562,80.375 L278.33,80.375 C278.768,80.375 279.178,80.498 279.547,80.744 L283.908,83.656 C284.988,84.381 286.26,84.764 287.545,84.764 L297.812,84.75 C299.016,84.75 300,85.734 300,86.938 L300,100.062 C300,101.266 299.016,102.25 297.812,102.25 L271.562,102.25 C270.359,102.25 269.375,101.266 269.375,100.062 L269.375,82.562 Z M265,82.562 L265,100.062 C265,103.686 267.939,106.625 271.562,106.625 L297.812,106.625 C301.436,106.625 304.375,103.686 304.375,100.062 L304.375,86.938 C304.375,83.314 301.436,80.375 297.812,80.375 L287.531,80.375 C287.094,80.375 286.684,80.252 286.314,80.006 L281.967,77.107 C280.887,76.383 279.615,76 278.33,76 L271.562,76 C267.939,76 265,78.939 265,82.562 Z M271.562,119.75 L278.33,119.75 C278.768,119.75 279.178,119.873 279.547,120.119 L284.182,123.209 C285.084,123.811 286.137,124.125 287.217,124.125 L297.826,124.125 C299.029,124.125 300.014,125.109 300.014,126.312 L300.014,139.438 C300.014,140.641 299.029,141.625 297.826,141.625 L271.576,141.625 C270.373,141.625 269.389,140.641 269.389,139.438 L269.389,121.938 C269.389,120.734 270.373,119.75 271.576,119.75 Z M265,121.938 L265,139.438 C265,143.061 267.939,146 271.562,146 L297.812,146 C301.436,146 304.375,143.061 304.375,139.438 L304.375,126.312 C304.375,122.689 301.436,119.75 297.812,119.75 L287.203,119.75 C286.984,119.75 286.779,119.682 286.602,119.572 L281.967,116.482 C280.887,115.758 279.629,115.375 278.33,115.375 L271.562,115.375 C267.939,115.375 265,118.314 265,121.938 Z M230,79.281 C230,78.078 229.016,77.094 227.812,77.094 C226.609,77.094 225.625,78.078 225.625,79.281 L225.625,130.688 C225.625,134.311 228.564,137.25 232.188,137.25 L258.438,137.25 L258.438,132.875 L232.188,132.875 C230.984,132.875 230,131.891 230,130.688 L230,97.875 L258.438,97.875 L258.438,93.5 L230,93.5 L230,79.281 Z" />
        </g>
        <g id="Regular-S">
            <path d="M469.375,82.562 C469.375,81.359 470.359,80.375 471.562,80.375 L478.33,80.375 C478.768,80.375 479.178,80.498 479.547,80.744 L483.908,83.656 C484.988,84.381 486.26,84.764 487.545,84.764 L497.812,84.75 C499.016,84.75 500,85.734 500,86.938 L500,100.062 C500,101.266 499.016,102.25 497.812,102.25 L471.562,102.25 C470.359,102.25 469.375,101.266 469.375,100.062 L469.375,82.562 Z M469.375,121.938 C469.375,120.734 470.359,119.75 471.562,119.75 L478.33,119.75 C478.768,119.75 479.178,119.873 479.547,120.119 L484.182,123.209 C485.084,123.811 486.137,124.125 487.217,124.125 L497.826,124.125 C499.029,124.125 500.014,125.109 500.014,126.312 L500.014,139.438 C500.014,140.641 499.029,141.625 497.826,141.625 L471.576,141.625 C470.373,141.625 469.389,140.641 469.389,139.438 L469.389,121.938 Z" />
            <path d="M469.375,82.562 C469.375,81.359 470.359,80.375 471.562,80.375 L478.33,80.375 C478.768,80.375 479.178,80.498 479.547,80.744 L483.908,83.656 C484.988,84.381 486.26,84.764 487.545,84.764 L497.812,84.75 C499.016,84.75 500,85.734 500,86.938 L500,100.062 C500,101.266 499.016,102.25 497.812,102.25 L471.562,102.25 C470.359,102.25 469.375,101.266 469.375,100.062 L469.375,82.562 Z M465,82.562 L465,100.062 C465,103.686 467.939,106.625 471.562,106.625 L497.812,106.625 C501.436,106.625 504.375,103.686 504.375,100.062 L504.375,86.938 C504.375,83.314 501.436,80.375 497.812,80.375 L487.531,80.375 C487.094,80.375 486.684,80.252 486.314,80.006 L481.967,77.107 C480.887,76.383 479.615,76 478.33,76 L471.562,76 C467.939,76 465,78.939 465,82.562 Z M471.562,119.75 L478.33,119.75 C478.768,119.75 479.178,119.873 479.547,120.119 L484.182,123.209 C485.084,123.811 486.137,124.125 487.217,124.125 L497.826,124.125 C499.029,124.125 500.014,125.109 500.014,126.312 L500.014,139.438 C500.014,140.641 499.029,141.625 497.826,141.625 L471.576,141.625 C470.373,141.625 469.389,140.641 469.389,139.438 L469.389,121.938 C469.389,120.734 470.373,119.75 471.576,119.75 Z M465,121.938 L465,139.438 C465,143.061 467.939,146 471.562,146 L497.812,146 C501.436,146 504.375,143.061 504.375,139.438 L504.375,126.312 C504.375,122.689 501.436,119.75 497.812,119.75 L487.203,119.75 C486.984,119.75 486.779,119.682 486.602,119.572 L481.967,116.482 C480.887,115.758 479.629,115.375 478.33,115.375 L471.562,115.375 C467.939,115.375 465,118.314 465,121.938 Z M430,79.281 C430,78.078 429.016,77.094 427.812,77.094 C426.609,77.094 425.625,78.078 425.625,79.281 L425.625,130.688 C425.625,134.311 428.564,137.25 432.188,137.25 L458.438,137.25 L458.438,132.875 L432.188,132.875 C430.984,132.875 430,131.891 430,130.688 L430,97.875 L458.438,97.875 L458.438,93.5 L430,93.5 L430,79.281 Z" />
        </g>
        <g id="Black-S">
            <path d="M669.375,82.562 C669.375,81.359 670.359,80.375 671.562,80.375 L678.33,80.375 C678.768,80.375 679.178,80.498 679.547,80.744 L683.908,83.656 C684.988,84.381 686.26,84.764 687.545,84.764 L697.812,84.75 C699.016,84.75 700,85.734 700,86.938 L700,100.062 C700,101.266 699.016,102.25 697.812,102.25 L671.562,102.25 C670.359,102.25 669.375,101.266 669.375,100.062 L669.375,82.562 Z M669.375,121.938 C669.375,120.734 670.359,119.75 671.562,119.75 L678.33,119.75 C678.768,119.75 679.178,119.873 679.547,120.119 L684.182,123.209 C685.084,123.811 686.137,124.125 687.217,124.125 L697.826,124.125 C699.029,124.125 700.014,125.109 700.014,126.312 L700.014,139.438 C700.014,140.641 699.029,141.625 697.826,141.625 L671.576,141.625 C670.373,141.625 669.389,140.641 669.389,139.438 L669.389,121.938 Z" />
            <path d="M669.375,82.562 C669.375,81.359 670.359,80.375 671.562,80.375 L678.33,80.375 C678.768,80.375 679.178,80.498 679.547,80.744 L683.908,83.656 C684.988,84.381 686.26,84.764 687.545,84.764 L697.812,84.75 C699.016,84.75 700,85.734 700,86.938 L700,100.062 C700,101.266 699.016,102.25 697.812,102.25 L671.562,102.25 C670.359,102.25 669.375,101.266 669.375,100.062 L669.375,82.562 Z M665,82.562 L665,100.062 C665,103.686 667.939,106.625 671.562,106.625 L697.812,106.625 C701.436,106.625 704.375,103.686 704.375,100.062 L704.375,86.938 C704.375,83.314 701.436,80.375 697.812,80.375 L687.531,80.375 C687.094,80.375 686.684,80.252 686.314,80.006 L681.967,77.107 C680.887,76.383 679.615,76 678.33,76 L671.562,76 C667.939,76 665,78.939 665,82.562 Z M671.562,119.75 L678.33,119.75 C678.768,119.75 679.178,119.873 679.547,120.119 L684.182,123.209 C685.084,123.811 686.137,124.125 687.217,124.125 L697.826,124.125 C699.029,124.125 700.014,125.109 700.014,126.312 L700.014,139.438 C700.014,140.641 699.029,141.625 697.826,141.625 L671.576,141.625 C670.373,141.625 669.389,140.641 669.389,139.438 L669.389,121.938 C669.389,120.734 670.373,119.75 671.576,119.75 Z M665,121.938 L665,139.438 C665,143.061 667.939,146 671.562,146 L697.812,146 C701.436,146 704.375,143.061 704.375,139.438 L704.375,126.312 C704.375,122.689 701.436,119.75 697.812,119.75 L687.203,119.75 C686.984,119.75 686.779,119.682 686.602,119.572 L681.967,116.482 C680.887,115.758 679.629,115.375 678.33,115.375 L671.562,115.375 C667.939,115.375 665,118.314 665,121.938 Z M630,79.281 C630,78.078 629.016,77.094 627.812,77.094 C626.609,77.094 625.625,78.078 625.625,79.281 L625.625,130.688 C625.625,134.311 628.564,137.25 632.188,137.25 L658.438,137.25 L658.438,132.875 L632.188,132.875 C630.984,132.875 630,131.891 630,130.688 L630,97.875 L658.438,97.875 L658.438,93.5 L630,93.5 L630,79.281 Z" />
        </g>
    </g>
</svg>