<?xml version="1.0" encoding="UTF-8"?>
<svg height="600" width="800" xmlns="http://www.w3.org/2000/svg" xmlns:xlink="http://www.w3.org/1999/xlink">
    <g id="Notes" font-family="'LucidaGrande', 'Lucida Grande', sans-serif" font-size="13">
        <rect fill="white" height="600.0" width="800.0" x="0.0" y="0.0" />
        <g font-size="13">
            <text x="18.0" y="176.0">Small</text>
            <text x="18.0" y="376.0">Medium</text>
            <text x="18.0" y="576.0">Large</text>
        </g>
        <g font-size="9">
            <text x="250.0" y="30.0">Ultralight</text>
            <text x="450.0" y="30.0">Regular</text>
            <text x="650.0" y="30.0">Black</text>
            <text id="template-version" fill="#505050" text-anchor="end" x="785.0" y="575.0">Template v.3.0</text>
            <a href="https://wangchujiang.com/#/app">
                <text fill="#505050" text-anchor="end" x="785.0" y="590.0">https://wangchujiang.com/#/app</text>
            </a>
        </g>
    </g>
    <g id="Guides" stroke="rgb(39, 170, 225)" stroke-width="0.5">
        <path id="Capline-S" d="M18,76 l800,0" />
        <path id="H-reference" d="M85,145.755 L87.685,145.755 L113.369,79.287 L114.052,79.287 L114.052,76 L112.148,76 L85,145.755 Z M95.693,121.536 L130.996,121.536 L130.263,119.313 L96.474,119.313 L95.693,121.536 Z M139.15,145.755 L141.787,145.755 L114.638,76 L113.466,76 L113.466,79.287 L139.15,145.755 Z" stroke="none" />
        <path id="Baseline-S" d="M18,146 l800,0" />
        <path id="left-margin-Ultralight-S" d="M211,56 l0,110" />
        <path id="right-margin-Ultralight-S" d="M319,56 l0,110" />
        <path id="left-margin-Regular-S" d="M411,56 l0,110" />
        <path id="right-margin-Regular-S" d="M519,56 l0,110" />
        <path id="left-margin-Black-S" d="M611,56 l0,110" />
        <path id="right-margin-Black-S" d="M719,56 l0,110" />
        <path id="Capline-M" d="M18,276 l800,0" />
        <path id="Baseline-M" d="M18,346 l800,0" />
        <path id="Capline-L" d="M18,476 l800,0" />
        <path id="Baseline-L" d="M18,546 l800,0" />
    </g>
    <g id="Symbols">
        <g id="Ultralight-S">
            <path d="M298,83.5 C301.042,83.5 303.5,85.958 303.5,89 L303.5,133 C303.5,136.042 301.042,138.5 298,138.5 L232,138.5 C228.958,138.5 226.5,136.042 226.5,133 L226.5,89 C226.5,85.958 228.958,83.5 232,83.5 L298,83.5 Z M232,78 C225.933,78 221,82.933 221,89 L221,133 C221,139.067 225.933,144 232,144 L298,144 C304.067,144 309,139.067 309,133 L309,89 C309,82.933 304.067,78 298,78 L232,78 Z M234.75,127.5 C234.75,129.012 235.988,130.25 237.5,130.25 L248.5,130.25 C250.012,130.25 251.25,129.012 251.25,127.5 C251.25,125.988 250.012,124.75 248.5,124.75 L237.5,124.75 C235.988,124.75 234.75,125.988 234.75,127.5 Z M259.5,127.5 C259.5,129.012 260.737,130.25 262.25,130.25 L292.5,130.25 C294.013,130.25 295.25,129.012 295.25,127.5 C295.25,125.988 294.013,124.75 292.5,124.75 L262.25,124.75 C260.737,124.75 259.5,125.988 259.5,127.5 Z M292.5,111 L281.5,111 C279.987,111 278.75,112.238 278.75,113.75 C278.75,115.262 279.987,116.5 281.5,116.5 L292.5,116.5 C294.013,116.5 295.25,115.262 295.25,113.75 C295.25,112.238 294.013,111 292.5,111 Z M267.75,111 L237.5,111 C235.988,111 234.75,112.238 234.75,113.75 C234.75,115.262 235.988,116.5 237.5,116.5 L267.75,116.5 C269.263,116.5 270.5,115.262 270.5,113.75 C270.5,112.238 269.263,111 267.75,111 Z" />
        </g>
        <g id="Regular-S">
            <path d="M498,83.5 C501.042,83.5 503.5,85.958 503.5,89 L503.5,133 C503.5,136.042 501.042,138.5 498,138.5 L432,138.5 C428.958,138.5 426.5,136.042 426.5,133 L426.5,89 C426.5,85.958 428.958,83.5 432,83.5 L498,83.5 Z M432,78 C425.933,78 421,82.933 421,89 L421,133 C421,139.067 425.933,144 432,144 L498,144 C504.067,144 509,139.067 509,133 L509,89 C509,82.933 504.067,78 498,78 L432,78 Z M434.75,127.5 C434.75,129.012 435.987,130.25 437.5,130.25 L448.5,130.25 C450.013,130.25 451.25,129.012 451.25,127.5 C451.25,125.988 450.013,124.75 448.5,124.75 L437.5,124.75 C435.987,124.75 434.75,125.988 434.75,127.5 Z M459.5,127.5 C459.5,129.012 460.737,130.25 462.25,130.25 L492.5,130.25 C494.013,130.25 495.25,129.012 495.25,127.5 C495.25,125.988 494.013,124.75 492.5,124.75 L462.25,124.75 C460.737,124.75 459.5,125.988 459.5,127.5 Z M492.5,111 L481.5,111 C479.987,111 478.75,112.238 478.75,113.75 C478.75,115.262 479.987,116.5 481.5,116.5 L492.5,116.5 C494.013,116.5 495.25,115.262 495.25,113.75 C495.25,112.238 494.013,111 492.5,111 Z M467.75,111 L437.5,111 C435.987,111 434.75,112.238 434.75,113.75 C434.75,115.262 435.987,116.5 437.5,116.5 L467.75,116.5 C469.263,116.5 470.5,115.262 470.5,113.75 C470.5,112.238 469.263,111 467.75,111 Z" />
        </g>
        <g id="Black-S">
            <path d="M698,83.5 C701.042,83.5 703.5,85.958 703.5,89 L703.5,133 C703.5,136.042 701.042,138.5 698,138.5 L632,138.5 C628.958,138.5 626.5,136.042 626.5,133 L626.5,89 C626.5,85.958 628.958,83.5 632,83.5 L698,83.5 Z M632,78 C625.933,78 621,82.933 621,89 L621,133 C621,139.067 625.933,144 632,144 L698,144 C704.067,144 709,139.067 709,133 L709,89 C709,82.933 704.067,78 698,78 L632,78 Z M634.75,127.5 C634.75,129.012 635.987,130.25 637.5,130.25 L648.5,130.25 C650.013,130.25 651.25,129.012 651.25,127.5 C651.25,125.988 650.013,124.75 648.5,124.75 L637.5,124.75 C635.987,124.75 634.75,125.988 634.75,127.5 Z M659.5,127.5 C659.5,129.012 660.737,130.25 662.25,130.25 L692.5,130.25 C694.013,130.25 695.25,129.012 695.25,127.5 C695.25,125.988 694.013,124.75 692.5,124.75 L662.25,124.75 C660.737,124.75 659.5,125.988 659.5,127.5 Z M692.5,111 L681.5,111 C679.987,111 678.75,112.238 678.75,113.75 C678.75,115.262 679.987,116.5 681.5,116.5 L692.5,116.5 C694.013,116.5 695.25,115.262 695.25,113.75 C695.25,112.238 694.013,111 692.5,111 Z M667.75,111 L637.5,111 C635.987,111 634.75,112.238 634.75,113.75 C634.75,115.262 635.987,116.5 637.5,116.5 L667.75,116.5 C669.263,116.5 670.5,115.262 670.5,113.75 C670.5,112.238 669.263,111 667.75,111 Z" />
        </g>
    </g>
</svg>