<?xml version="1.0" encoding="UTF-8" standalone="no"?>
<svg width="800" height="600" version="1.1" xmlns="http://www.w3.org/2000/svg" xmlns:xlink="http://www.w3.org/1999/xlink">
    <g id="Notes" font-family="'LucidaGrande', 'Lucida Grande', sans-serif" font-weight="500" font-size="13px">
          <rect x="0" y="0" width="800" height="600" fill="white"/>
        <g font-weight="500" font-size="13px">
            <text x="18px" y="176px">Small</text>
            <text x="18px" y="376px">Medium</text>
            <text x="18px" y="576px">Large</text>
        </g>
        <g font-weight="300" font-size="9px">
            <text x="250px" y="30px">Ultralight</text>
            <text x="450px" y="30px">Regular</text>
         <text x="650px" y="30px">Black</text>
         <text id="template-version" fill="#505050" x="785.0" y="575.0" text-anchor="end">Template v.3.0</text>
         <a href="https://wangchujiang.com/#/app">
            <text fill="#505050" x="785.0" y="590.0" text-anchor="end">https://wangchujiang.com/#/app</text>
         </a>
        </g>
    </g>

    <g id="Guides" stroke="rgb(39,170,225)" stroke-width="0.5px">
        <path id="Capline-S" d="M18,76 l800,0" />
        <path id="H-reference"
            d="M85,145.755 L87.685,145.755 L113.369,79.287 L114.052002,79.287
               L114.052002,76 L112.148,76 L85,145.755 Z
               M95.693,121.536 L130.996,121.536 L130.263,119.313 L96.474,119.313 L95.693,121.536 Z
               M139.14999,145.755 L141.787,145.755 L114.638,76 L113.466,76 L113.466,79.287 L139.14999,145.755 Z" stroke="none" />
        <path id="Baseline-S" d="M18,146 l800,0" />
        <path id="left-margin-Ultralight-S" d="M221,56 l0,110" />
        <path id="right-margin-Ultralight-S" d="M309,56 l0,110" />        <path id="left-margin-Regular-S" d="M421,56 l0,110" />
        <path id="right-margin-Regular-S" d="M509,56 l0,110" />        <path id="left-margin-Black-S" d="M621,56 l0,110" />
        <path id="right-margin-Black-S" d="M709,56 l0,110" />
        <path id="Capline-M" d="M18,276 l800,0" />
        <path id="Baseline-M" d="M18,346 l800,0" />

        <path id="Capline-L" d="M18,476 l800,0" />
        <path id="Baseline-L" d="M18,546 l800,0" />

    </g>

    <g id="Symbols">
        <g id="Ultralight-S">
<path d="M247.776 76.013 C243.026 76.013 239.164 79.875 239.164 84.626 L239.164 141.95 C239.164 144.453 241.882 146 244.035 144.735 L265 132.342 L285.965 144.722 C288.118 146 290.836 144.439 290.836 141.936 L290.836 84.612 C290.836 79.862 286.974 76 282.224 76 L247.776 76.013 Z M243.47 84.626 C243.47 82.244 245.394 80.319 247.776 80.319 L282.224 80.319 C284.606 80.319 286.53 82.244 286.53 84.626 L286.53 140.066 L266.642 128.318 C265.632 127.713 264.368 127.713 263.358 128.318 L243.47 140.066 L243.47 84.626 Z M262.847 113.691 C262.847 114.875 263.816 115.844 265 115.844 C266.184 115.844 267.153 114.875 267.153 113.691 L267.153 106.156 L274.689 106.156 C275.873 106.156 276.842 105.187 276.842 104.003 C276.842 102.819 275.873 101.85 274.689 101.85 L267.153 101.85 L267.153 94.314 C267.153 93.13 266.184 92.161 265 92.161 C263.816 92.161 262.847 93.13 262.847 94.314 L262.847 101.85 L255.311 101.85 C254.127 101.85 253.158 102.819 253.158 104.003 C253.158 105.187 254.127 106.156 255.311 106.156 L262.847 106.156 L262.847 113.691 Z" fill="currentColor"/>
        </g>
        <g id="Regular-S">
<path d="M447.776 76.013 C443.026 76.013 439.164 79.875 439.164 84.626 L439.164 141.95 C439.164 144.453 441.882 146 444.035 144.735 L465 132.342 L485.965 144.722 C488.118 146 490.836 144.439 490.836 141.936 L490.836 84.612 C490.836 79.862 486.974 76 482.224 76 L447.776 76.013 Z M443.47 84.626 C443.47 82.244 445.394 80.319 447.776 80.319 L482.224 80.319 C484.606 80.319 486.53 82.244 486.53 84.626 L486.53 140.066 L466.642 128.318 C465.632 127.713 464.368 127.713 463.358 128.318 L443.47 140.066 L443.47 84.626 Z M462.847 113.691 C462.847 114.875 463.816 115.844 465 115.844 C466.184 115.844 467.153 114.875 467.153 113.691 L467.153 106.156 L474.689 106.156 C475.873 106.156 476.842 105.187 476.842 104.003 C476.842 102.819 475.873 101.85 474.689 101.85 L467.153 101.85 L467.153 94.314 C467.153 93.13 466.184 92.161 465 92.161 C463.816 92.161 462.847 93.13 462.847 94.314 L462.847 101.85 L455.311 101.85 C454.127 101.85 453.158 102.819 453.158 104.003 C453.158 105.187 454.127 106.156 455.311 106.156 L462.847 106.156 L462.847 113.691 Z" fill="currentColor"/>
        </g>
        <g id="Black-S">
<path d="M647.776 76.013 C643.026 76.013 639.164 79.875 639.164 84.626 L639.164 141.95 C639.164 144.453 641.882 146 644.035 144.735 L665 132.342 L685.965 144.722 C688.118 146 690.836 144.439 690.836 141.936 L690.836 84.612 C690.836 79.862 686.974 76 682.224 76 L647.776 76.013 Z M643.47 84.626 C643.47 82.244 645.394 80.319 647.776 80.319 L682.224 80.319 C684.606 80.319 686.53 82.244 686.53 84.626 L686.53 140.066 L666.642 128.318 C665.632 127.713 664.368 127.713 663.358 128.318 L643.47 140.066 L643.47 84.626 Z M662.847 113.691 C662.847 114.875 663.816 115.844 665 115.844 C666.184 115.844 667.153 114.875 667.153 113.691 L667.153 106.156 L674.689 106.156 C675.873 106.156 676.842 105.187 676.842 104.003 C676.842 102.819 675.873 101.85 674.689 101.85 L667.153 101.85 L667.153 94.314 C667.153 93.13 666.184 92.161 665 92.161 C663.816 92.161 662.847 93.13 662.847 94.314 L662.847 101.85 L655.311 101.85 C654.127 101.85 653.158 102.819 653.158 104.003 C653.158 105.187 654.127 106.156 655.311 106.156 L662.847 106.156 L662.847 113.691 Z" fill="currentColor"/>
        </g>
    </g>
</svg>